<?xml version="1.0" encoding="utf-8"?>
<!-- Generator: Adobe Illustrator 23.0.3, SVG Export Plug-In . SVG Version: 6.00 Build 0)  -->
<svg version="1.1" id="Layer_1" xmlns="http://www.w3.org/2000/svg" xmlns:xlink="http://www.w3.org/1999/xlink" x="0px" y="0px"
	 viewBox="0 0 74 66" style="enable-background:new 0 0 74 66;" xml:space="preserve">
<g>
	<path d="M13.5,10c1.3,0,2.6,0.8,3.1,2c0.3,0.7,1,1.1,1.8,1.1h40.1c0.6,0,1.2,0.3,1.5,0.7c0.4,0.5,0.5,1.1,0.3,1.7l-4,14.9
		c-0.6,2.2-2.6,3.7-4.9,3.7H23.3c-0.6,0-1.2,0.3-1.5,0.7c-0.4,0.5-0.5,1.1-0.4,1.6l0.5,2.8c0.4,2,2.2,3.5,4.3,3.5h28.2
		c0.2,0,0.3,0.2,0.3,0.3s-0.2,0.3-0.3,0.3H26.2c-2.4,0-4.5-1.7-4.9-4.1l-5-26.5c-0.2-1.3-1.4-2.3-2.7-2.3H9c-0.2,0-0.3-0.2-0.3-0.3
		S8.8,10,9,10H13.5 M52,50.6c1.5,0,2.7,1.2,2.7,2.7c0,1.5-1.2,2.7-2.7,2.7s-2.7-1.2-2.7-2.7C49.3,51.8,50.5,50.6,52,50.6 M23.9,50.6
		c1.5,0,2.7,1.2,2.7,2.7c0,1.5-1.2,2.7-2.7,2.7s-2.7-1.2-2.7-2.7C21.2,51.8,22.4,50.6,23.9,50.6 M13.5,8H9c-1.3,0-2.3,1-2.3,2.3
		s1,2.3,2.3,2.3h4.4c0.4,0,0.7,0.3,0.8,0.6l5,26.5c0.6,3.3,3.5,5.7,6.9,5.7h28.2c1.3,0,2.3-1,2.3-2.3s-1-2.3-2.3-2.3H26.2
		c-1.1,0-2.1-0.8-2.3-1.9l-0.5-2.8h28.2c3.2,0,6-2.1,6.8-5.2l4-14.9c0.7-2.5-1.2-4.9-3.8-4.9H18.4C17.5,9.3,15.6,8,13.5,8L13.5,8z
		 M52,48.6c-2.6,0-4.7,2.1-4.7,4.7S49.4,58,52,58s4.7-2.1,4.7-4.7S54.6,48.6,52,48.6L52,48.6z M23.9,48.6c-2.6,0-4.7,2.1-4.7,4.7
		s2.1,4.7,4.7,4.7s4.7-2.1,4.7-4.7S26.4,48.6,23.9,48.6L23.9,48.6z"/>
</g>
</svg>
