<?xml version="1.0" encoding="utf-8"?>
<!-- Generator: Adobe Illustrator 23.0.3, SVG Export Plug-In . SVG Version: 6.00 Build 0)  -->
<svg version="1.1" id="Layer_1" xmlns="http://www.w3.org/2000/svg" xmlns:xlink="http://www.w3.org/1999/xlink" x="0px" y="0px"
	 viewBox="0 0 78 66" style="enable-background:new 0 0 78 66;" xml:space="preserve">
<g>
	<path d="M50,15.7c0.7,0,1.3,0.1,2,0.2c5.8,1,10,5.9,10,11.8v0.6c0,3.5-1.5,6.9-4,9.2L40.3,53.9c-0.4,0.3-0.8,0.5-1.3,0.5
		s-1-0.2-1.3-0.5L20,37.5c-2.5-2.4-4-5.7-4-9.2v-0.6c0-5.9,4.2-10.8,10-11.8c0.6-0.1,1.3-0.2,2-0.2c3.1,0,6.2,1.3,8.5,3.5l1.2,1.2
		C38,20.8,38.5,21,39,21s1-0.2,1.4-0.6l1.2-1.2C43.8,16.9,46.8,15.7,50,15.7 M50,13.7c-3.7,0-7.2,1.5-9.9,4.1L39,19l-1.2-1.2
		c-2.6-2.6-6.2-4.1-9.9-4.1c-0.8,0-1.5,0.1-2.3,0.2C18.9,15,14,20.8,14,27.7v0.6c0,4.1,1.7,7.9,4.6,10.7v0l17.6,16.5
		c0.7,0.7,1.7,1.1,2.7,1.1s2-0.4,2.7-1.1l17.6-16.5c3-2.8,4.6-6.6,4.6-10.7v-0.6c0-6.8-4.9-12.6-11.7-13.8
		C51.6,13.8,50.8,13.7,50,13.7L50,13.7z"/>
</g>
</svg>
